<?xml version="1.0" encoding="UTF-8"?><svg id="Layer_2" xmlns="http://www.w3.org/2000/svg" viewBox="0 0 309.31 293.18"><defs><style>.cls-1{fill:#fff;}</style></defs><g id="Layer_1-2"><g><path class="cls-1" d="M124.74,236h31.06v-3.57c-9.34-1.92-10.44-10.99-3.3-28.86l16.22-40.13h77.51l16.77,40.41c8.79,20.61,10.99,26.11,2.47,28.58v3.57h42.6v-3.57c-5.78-2.47-12.37-7.97-20.89-28.58L219.57,41.4l-20.61,9.34,2.47,5.77c2.2,4.4,2.47,7.97,.55,12.92l-54.15,134.14c-8.52,20.89-15.39,26.39-23.09,28.86v3.57Zm45.63-76.69l36.56-90.43,37.66,90.43h-74.21Z"/><path class="cls-1" d="M126.4,84.48c-3.83,4.06-8.21,7.04-13.13,8.96,20.92,2.99,36.81,10.41,47.69,22.25,10.88,11.83,16.31,26.29,16.31,43.35,0,20.7-8.32,37.45-24.96,50.25-16.64,12.79-38.51,19.19-65.6,19.19s-48.31-6.67-63.67-20C7.68,195.15,0,176.32,0,152v-3.83l3.52-.65c4.26,31.79,17.49,52.38,39.69,61.75V23.04c-.43-5.76-2.62-10.51-6.56-14.23-3.95-3.73-8.7-5.6-14.25-5.6h-3.83V0h53.75c20.05,0,36.11,4.59,48.17,13.77,12.05,9.17,18.08,21.17,18.08,36s-4.06,26.39-12.17,34.71ZM64,10.25V215.04c7.04,1.07,15.15,1.6,24.31,1.6,20.48,0,36.43-5.49,47.83-16.48,11.42-10.98,17.13-25.23,17.13-42.73,0-9.39-1.76-17.71-5.27-24.96-3.52-7.25-7.94-12.9-13.27-16.96-14.08-10.88-33.93-16.31-59.52-16.31h-.33l-.31-2.9h.31c10.89,0,20.22-3.57,28-10.71,7.79-7.15,11.69-18.19,11.69-33.13,0-28.15-15.47-42.23-46.4-42.23h-4.17Z"/><path class="cls-1" d="M45.14,264.74c0,1.33-.5,2.37-1.5,3.1-1,.72-2.39,1.08-4.17,1.08h-7.33v-14.69h6.71c1.79,0,3.15,.31,4.06,.94,.93,.63,1.4,1.54,1.4,2.75,0,.83-.24,1.54-.71,2.13-.46,.57-1.16,.95-2.1,1.15,1.19,.14,2.09,.52,2.71,1.13,.63,.61,.94,1.42,.94,2.42Zm-3.94-6.4c0-.65-.21-1.11-.63-1.4-.42-.28-1.04-.42-1.88-.42h-3.5v3.63h3.52c.88,0,1.51-.15,1.9-.44,.39-.3,.58-.76,.58-1.38Zm.85,6.15c0-1.38-.99-2.06-2.96-2.06h-3.9v4.21h4.02c.98,0,1.7-.17,2.15-.52,.46-.36,.69-.9,.69-1.63Z"/><path class="cls-1" d="M56.14,269.13c-2.03,0-3.58-.49-4.65-1.48-1.07-.98-1.6-2.4-1.6-4.23v-9.19h3.06v8.94c0,1.17,.28,2.05,.83,2.65,.55,.6,1.36,.9,2.44,.9s1.94-.31,2.52-.94c.59-.63,.9-1.53,.9-2.71v-8.83h3.06v9.02c0,1.86-.58,3.31-1.73,4.33-1.14,1.03-2.75,1.54-4.83,1.54Z"/><path class="cls-1" d="M79.89,264.7c0,1.43-.54,2.53-1.6,3.29-1.06,.77-2.62,1.15-4.69,1.15-1.88,0-3.35-.33-4.42-1-1.07-.67-1.76-1.68-2.06-3.04l2.96-.48c.21,.78,.6,1.34,1.19,1.69,.58,.35,1.39,.52,2.42,.52,2.15,0,3.23-.65,3.23-1.96,0-.42-.13-.76-.38-1.02-.25-.28-.6-.51-1.04-.69-.45-.18-1.31-.4-2.58-.65-1.1-.26-1.86-.47-2.29-.63-.43-.15-.82-.33-1.17-.54-.35-.22-.65-.48-.9-.77-.24-.3-.43-.66-.56-1.06-.13-.4-.19-.86-.19-1.38,0-1.33,.49-2.34,1.48-3.04,1-.71,2.45-1.06,4.35-1.06s3.19,.29,4.1,.85c.92,.57,1.51,1.51,1.77,2.81l-2.98,.42c-.16-.64-.47-1.11-.94-1.44-.47-.32-1.15-.48-2.02-.48-1.86,0-2.79,.58-2.79,1.75,0,.39,.09,.71,.29,.96,.21,.24,.51,.44,.9,.6,.39,.17,1.17,.39,2.35,.65,1.42,.29,2.42,.57,3.02,.83,.61,.25,1.09,.54,1.44,.88,.36,.33,.63,.74,.81,1.21,.19,.47,.29,1.02,.29,1.63Z"/><path class="cls-1" d="M84.66,268.93v-14.69h3.06v14.69h-3.06Z"/><path class="cls-1" d="M102.02,268.93l-6.4-11.31c.13,1.1,.19,1.98,.19,2.65v8.67h-2.73v-14.69h3.5l6.5,11.4c-.13-1.04-.19-1.99-.19-2.85v-8.54h2.73v14.69h-3.6Z"/><path class="cls-1" d="M110.98,268.93v-14.69h11.54v2.38h-8.48v3.69h7.83v2.38h-7.83v3.88h8.9v2.38h-11.96Z"/><path class="cls-1" d="M139.66,264.7c0,1.43-.54,2.53-1.6,3.29-1.06,.77-2.62,1.15-4.69,1.15-1.88,0-3.35-.33-4.42-1-1.07-.67-1.76-1.68-2.06-3.04l2.96-.48c.21,.78,.6,1.34,1.19,1.69,.58,.35,1.39,.52,2.42,.52,2.15,0,3.23-.65,3.23-1.96,0-.42-.13-.76-.38-1.02-.25-.28-.6-.51-1.04-.69-.45-.18-1.31-.4-2.58-.65-1.1-.26-1.86-.47-2.29-.63-.43-.15-.82-.33-1.17-.54-.35-.22-.65-.48-.9-.77-.24-.3-.43-.66-.56-1.06-.13-.4-.19-.86-.19-1.38,0-1.33,.49-2.34,1.48-3.04,1-.71,2.45-1.06,4.35-1.06s3.19,.29,4.1,.85c.92,.57,1.51,1.51,1.77,2.81l-2.98,.42c-.16-.64-.47-1.11-.94-1.44-.47-.32-1.15-.48-2.02-.48-1.86,0-2.79,.58-2.79,1.75,0,.39,.09,.71,.29,.96,.21,.24,.51,.44,.9,.6,.39,.17,1.17,.39,2.35,.65,1.42,.29,2.42,.57,3.02,.83,.61,.25,1.09,.54,1.44,.88,.36,.33,.63,.74,.81,1.21,.19,.47,.29,1.02,.29,1.63Z"/><path class="cls-1" d="M156.38,264.7c0,1.43-.54,2.53-1.6,3.29-1.06,.77-2.62,1.15-4.69,1.15-1.88,0-3.35-.33-4.42-1-1.07-.67-1.76-1.68-2.06-3.04l2.96-.48c.21,.78,.6,1.34,1.19,1.69,.58,.35,1.39,.52,2.42,.52,2.15,0,3.23-.65,3.23-1.96,0-.42-.13-.76-.38-1.02-.25-.28-.6-.51-1.04-.69-.45-.18-1.31-.4-2.58-.65-1.1-.26-1.86-.47-2.29-.63-.43-.15-.82-.33-1.17-.54-.35-.22-.65-.48-.9-.77-.24-.3-.43-.66-.56-1.06-.13-.4-.19-.86-.19-1.38,0-1.33,.49-2.34,1.48-3.04,1-.71,2.45-1.06,4.35-1.06s3.19,.29,4.1,.85c.92,.57,1.51,1.51,1.77,2.81l-2.98,.42c-.16-.64-.47-1.11-.94-1.44-.47-.32-1.15-.48-2.02-.48-1.86,0-2.79,.58-2.79,1.75,0,.39,.09,.71,.29,.96,.21,.24,.51,.44,.9,.6,.39,.17,1.17,.39,2.35,.65,1.42,.29,2.42,.57,3.02,.83,.61,.25,1.09,.54,1.44,.88,.36,.33,.63,.74,.81,1.21,.19,.47,.29,1.02,.29,1.63Z"/><path class="cls-1" d="M179.94,268.93l-1.31-3.75h-5.58l-1.31,3.75h-3.06l5.35-14.69h3.63l5.33,14.69h-3.04Zm-4.1-12.42l-.06,.23c-.07,.25-.16,.54-.25,.85-.1,.32-.7,2.08-1.79,5.27h4.21l-1.44-4.23-.46-1.42-.21-.71Z"/><path class="cls-1" d="M196.4,268.93l-6.4-11.31c.13,1.1,.19,1.98,.19,2.65v8.67h-2.73v-14.69h3.5l6.5,11.4c-.13-1.04-.19-1.99-.19-2.85v-8.54h2.73v14.69h-3.6Z"/><path class="cls-1" d="M215.74,268.93l-1.31-3.75h-5.58l-1.31,3.75h-3.06l5.35-14.69h3.63l5.33,14.69h-3.04Zm-4.1-12.42l-.06,.23c-.07,.25-.16,.54-.25,.85-.1,.32-.7,2.08-1.79,5.27h4.21l-1.44-4.23-.46-1.42-.21-.71Z"/><path class="cls-1" d="M223.26,268.93v-14.69h3.06v12.31h7.88v2.38h-10.94Z"/><path class="cls-1" d="M246.01,262.9v6.02h-3.06v-6.02l-5.23-8.67h3.21l3.52,6.21,3.56-6.21h3.23l-5.23,8.67Z"/><path class="cls-1" d="M262.13,256.61v12.31h-3.08v-12.31h-4.73v-2.38h12.56v2.38h-4.75Z"/><path class="cls-1" d="M271.03,268.93v-14.69h3.06v14.69h-3.06Z"/><path class="cls-1" d="M286.31,266.72c1.84,0,3.13-.93,3.85-2.79l2.69,1c-.58,1.42-1.43,2.47-2.54,3.17-1.11,.7-2.45,1.04-4,1.04-2.36,0-4.19-.67-5.48-2-1.29-1.34-1.94-3.22-1.94-5.63s.61-4.25,1.85-5.54c1.25-1.29,3.05-1.94,5.42-1.94,1.72,0,3.13,.35,4.21,1.04,1.08,.68,1.84,1.7,2.29,3.04l-2.71,.73c-.24-.73-.69-1.32-1.35-1.75-.67-.43-1.46-.65-2.38-.65-1.39,0-2.45,.43-3.17,1.29-.71,.86-1.06,2.12-1.06,3.77s.36,2.99,1.1,3.88c.73,.89,1.8,1.33,3.21,1.33Z"/><path class="cls-1" d="M309.31,264.7c0,1.43-.54,2.53-1.6,3.29-1.06,.77-2.62,1.15-4.69,1.15-1.88,0-3.35-.33-4.42-1-1.07-.67-1.76-1.68-2.06-3.04l2.96-.48c.21,.78,.6,1.34,1.19,1.69,.58,.35,1.39,.52,2.42,.52,2.15,0,3.23-.65,3.23-1.96,0-.42-.13-.76-.38-1.02-.25-.28-.6-.51-1.04-.69-.45-.18-1.31-.4-2.58-.65-1.1-.26-1.86-.47-2.29-.63-.43-.15-.82-.33-1.17-.54-.35-.22-.65-.48-.9-.77-.24-.3-.43-.66-.56-1.06-.13-.4-.19-.86-.19-1.38,0-1.33,.49-2.34,1.48-3.04,1-.71,2.45-1.06,4.35-1.06s3.19,.29,4.1,.85c.92,.57,1.51,1.51,1.77,2.81l-2.98,.42c-.16-.64-.47-1.11-.94-1.44-.47-.32-1.15-.48-2.02-.48-1.86,0-2.79,.58-2.79,1.75,0,.39,.09,.71,.29,.96,.21,.24,.51,.44,.9,.6,.39,.17,1.17,.39,2.35,.65,1.42,.29,2.42,.57,3.02,.83,.61,.25,1.09,.54,1.44,.88,.36,.33,.63,.74,.81,1.21,.19,.47,.29,1.02,.29,1.63Z"/><path class="cls-1" d="M249.76,293.13c-2.03,0-3.58-.49-4.65-1.48-1.07-.98-1.6-2.4-1.6-4.23v-9.19h3.06v8.94c0,1.17,.28,2.05,.83,2.65,.55,.6,1.36,.9,2.44,.9s1.94-.31,2.52-.94c.59-.63,.9-1.53,.9-2.71v-8.83h3.06v9.02c0,1.86-.58,3.31-1.73,4.33-1.14,1.03-2.75,1.54-4.83,1.54Z"/><path class="cls-1" d="M268.41,290.72c1.84,0,3.13-.93,3.85-2.79l2.69,1c-.58,1.42-1.43,2.47-2.54,3.17-1.11,.7-2.45,1.04-4,1.04-2.36,0-4.19-.67-5.48-2-1.29-1.34-1.94-3.22-1.94-5.63s.61-4.25,1.85-5.54c1.25-1.29,3.05-1.94,5.42-1.94,1.72,0,3.13,.35,4.21,1.04,1.08,.68,1.84,1.7,2.29,3.04l-2.71,.73c-.24-.73-.69-1.32-1.35-1.75-.67-.43-1.46-.65-2.38-.65-1.39,0-2.45,.43-3.17,1.29-.71,.86-1.06,2.12-1.06,3.77s.36,2.99,1.1,3.88c.73,.89,1.8,1.33,3.21,1.33Z"/><path class="cls-1" d="M289.12,288.84c0,1.38-.45,2.45-1.35,3.21-.91,.75-2.19,1.13-3.85,1.13s-2.84-.36-3.77-1.08c-.93-.73-1.47-1.79-1.63-3.17l2.98-.25c.18,1.41,.98,2.1,2.4,2.1,.71,0,1.26-.17,1.65-.52,.39-.34,.58-.88,.58-1.58,0-.65-.24-1.15-.71-1.5-.47-.34-1.18-.52-2.1-.52h-1.02v-2.38h.96c.83,0,1.46-.17,1.88-.5,.43-.34,.65-.84,.65-1.48s-.17-1.08-.5-1.42c-.33-.34-.83-.52-1.48-.52-.6,0-1.08,.17-1.46,.5s-.59,.81-.65,1.42l-2.92-.21c.15-1.26,.67-2.25,1.56-2.96,.9-.72,2.07-1.08,3.52-1.08,1.53,0,2.72,.35,3.58,1.04,.88,.68,1.31,1.64,1.31,2.85,0,.92-.27,1.68-.81,2.27-.54,.58-1.32,.97-2.33,1.17v.04c1.13,.14,1.99,.52,2.6,1.13,.61,.6,.92,1.37,.92,2.31Z"/><path class="cls-1" d="M306,292.93v-9.5c0-.21,.03-1.07,.1-2.6-.5,1.88-.87,3.18-1.1,3.92l-2.65,8.19h-2.19l-2.65-8.19-1.1-3.92c.08,1.61,.13,2.68,.13,3.21v8.9h-2.73v-14.69h4.1l2.63,8.21,.23,.79,.5,1.98,.67-2.35,2.69-8.63h4.1v14.69h-2.73Z"/></g></g></svg>